<?xml version="1.0" encoding="iso-8859-1"?>
<!DOCTYPE svg PUBLIC "-//W3C//DTD SVG 1.1//EN" "http://www.w3.org/Graphics/SVG/1.1/DTD/svg11.dtd">
<svg 
 version="1.1" xmlns="http://www.w3.org/2000/svg" xmlns:xlink="http://www.w3.org/1999/xlink" x="0px" y="0px" width="512px"
	 height="512px" viewBox="0 0 512 512" style="enable-background:new 0 0 512 512;" xml:space="preserve"
><g id="afcae5a789ccd549f9c6e2a2f81847b6"><g></g><path style="display: inline; fill-rule: evenodd; clip-rule: evenodd;" d="M338.429,216.013c-0.3-0.682,2.204-7.315,6.574-11.665
		c0,0,15.449-15.374,33.256-15.374c13.204,0,25.925,5.522,32.42,14.064c2.546,3.352,3.784,6.695,3.677,9.943
		c-0.324,9.781-0.324,9.781-0.324,9.781c-0.981,3.119-6.159,4.263-11.503,2.541c0,0,0,0-5.598-2.682
		c-9.307-4.454-19.849-9.502-30.84-9.502c-9.644,0-16.95,1.776-22.285,3.077c-1.746,0.424-1.746,0.424-1.746,0.424
		C340.362,216.973,338.729,216.699,338.429,216.013z M21.431,358.197c-11.058-12.11-8.375-42.151-6.304-53.513
		c1.439-3.064,7.036-13.973,19.013-25.787c6.986-6.891,17.004-14.778,27.613-23.129c19.441-15.312,41.477-32.665,59.775-54.539
		c15.095-18.036,28.586-37.893,41.639-57.097c19.117-28.125,37.173-54.689,55.688-68.296c8.217-6.038,17.977-9.099,29.001-9.099
		c11.583,0,20.968,3.36,23.509,4.366c7.281,4.625,52.156,32.678,102.67,54.011c15.682,6.62,31.601,10.479,46.995,14.209
		c14.593,3.539,28.374,6.878,39.257,12.11c25.222,12.114,34.591,33.231,35.876,36.404c1.738,7.477,15.254,73.315-40.205,101.951
		c-116.851,60.336-356.745,84.655-369.536,85.915l-0.944,0.005C67.633,375.709,34.061,372.02,21.431,358.197z M277.29,221.219
		c14.908,39.656,24.552,18.739,68.84,18.739c44.293,0,96.878,56.136,100.071-20.581c1.223-29.372-35.904-53.229-80.197-53.229
		S270.195,202.343,277.29,221.219z M509.028,243.775c-4.678,22.781-17.212,47.557-47.216,63.047
		c-123.097,63.563-374.701,87.325-374.701,87.325S32.992,395.47,12,372.494c-4.05-4.438-6.766-10.102-8.533-16.243
		c-0.416,0.898-0.611,1.397-0.611,1.397S-6.473,403.363,12,423.59c20.993,22.98,75.112,21.658,75.112,21.658
		s251.604-23.763,374.701-87.325C521.924,326.883,511.993,258.617,509.028,243.775z"></path></g></svg>